<?xml version="1.0" encoding="UTF-8" standalone="no"?>
<!DOCTYPE svg PUBLIC "-//W3C//DTD SVG 1.1//EN" "http://www.w3.org/Graphics/SVG/1.1/DTD/svg11.dtd">
<svg width="100%" height="100%" viewBox="0 0 800 600" version="1.1" xmlns="http://www.w3.org/2000/svg" xmlnsXlink="http://www.w3.org/1999/xlink" xmlSpace="preserve" xmlnsSerif="http://www.serif.com/" style="fill-rule:evenodd;clip-rule:evenodd;stroke-linecap:round;stroke-linejoin:round;stroke-miterlimit:1.5;">
    <g transform="matrix(1.64815,0,0,1.64815,54.1037,6.73443)">
        <circle cx="215.883" cy="178.399" r="164.676" style="fill:rgb(235,235,235);"/>
        <clipPath id="_clip1">
            <circle cx="215.883" cy="178.399" r="164.676"/>
        </clipPath>
        <g clip-path="url(#_clip1)">
            <g transform="matrix(0.680851,0,0,0.680851,-66.709,-25.7266)">
                <path d="M638.603,279.229C640.15,279.856 632.307,275.797 633.699,276.514C750.188,336.553 563.883,536.115 410.228,552.604C323.48,561.913 115.524,364.749 185.827,301.396C188.774,298.74 186.888,299.417 190.873,297.36C193.693,295.904 197.279,297.49 202.391,291.448C280.999,198.54 486.294,190.004 459.945,251.803C455.634,261.914 427.846,281.03 423.247,287.843C413.313,302.56 415.535,313.23 417.879,335.608C423.122,385.678 597.608,436.616 631.56,329.428C642.187,295.881 636.117,262.27 638.603,279.229Z" style="fill:url(#_Linear2);stroke:rgb(116,127,143);stroke-width:0.85px;"/>
            </g>
            <g transform="matrix(0.31773,0,0,0.31773,-54.003,-4.5207)">
                <circle cx="586.77" cy="324.282" r="31.449" style="fill:rgb(255,126,0);stroke:rgb(116,127,143);stroke-width:1.83px;"/>
            </g>
            <g transform="matrix(0.994455,0,0,0.936686,-275.119,-146.841)">
                <circle cx="586.77" cy="324.282" r="31.449" style="fill:rgb(255,126,0);stroke:rgb(116,127,143);stroke-width:0.6px;"/>
            </g>
            <g transform="matrix(0.717988,0,0,0.684977,-186.475,-143.207)">
                <circle cx="586.77" cy="324.282" r="31.449" style="fill:rgb(255,126,0);stroke:rgb(116,127,143);stroke-width:0.83px;"/>
            </g>
        </g>
        <circle cx="215.883" cy="178.399" r="164.676" style="fill:none;stroke:rgb(113,128,149);stroke-width:31.6px;"/>
    </g>
    <defs>
        <linearGradient id="_Linear2" x1="0" y1="0" x2="1" y2="0" gradientUnits="userSpaceOnUse" gradientTransform="matrix(4.57433,3.04956,-3.04956,4.57433,85.69,257.001)"><stop offset="0" style="stop-color:white;stop-opacity:1"/><stop offset="1" style="stop-color:rgb(47,68,91);stop-opacity:1"/></linearGradient>
    </defs>
</svg>
